<svg width="114" height="143" viewBox="0 0 114 143" fill="none" xmlns="http://www.w3.org/2000/svg">
<path d="M42.6358 78.7617L39.6194 80.2699C37.4967 81.3312 35.3182 82.1133 33.028 82.6719L18.0018 86.4703C14.0358 87.4758 11.1311 90.9391 10.9077 95.0727L7.38852 138.14C7.33266 139.984 8.78501 141.548 10.6842 141.604H10.7401H52.076L42.6358 78.7617Z" fill="#3CAADC"/>
<path d="M95.423 107.418C86.4296 107.418 79.1679 100.156 79.1679 91.1625C79.1679 87.9227 80.1175 84.7945 81.905 82.1133C80.341 81.6105 78.8328 80.9961 77.3246 80.2699L74.3082 78.7617L64.8679 141.604H106.204C108.047 141.604 109.555 140.095 109.555 138.252V138.196L106.651 102.893C103.69 105.798 99.6683 107.418 95.423 107.418Z" fill="#3CAADC"/>
<path d="M52.0762 141.604H64.9239L74.3641 78.7617L69.4485 76.3597L64.3653 86.8613C63.9743 87.6433 63.1922 88.1461 62.2985 88.1461H54.3106C53.4169 88.1461 52.6348 87.6433 52.2438 86.8054L47.5516 76.3597L42.636 78.7617L52.0762 141.604Z" fill="#DAE6F1"/>
<path d="M71.7386 96.0781L74.3082 78.7617L69.3925 76.3597L64.3093 86.8613L71.5152 95.8547L71.7386 96.0781Z" fill="#EDF4FC"/>
<path d="M45.2614 96.0781C45.3173 96.0222 45.3731 95.9664 45.429 95.8547L52.4673 87.1406C52.4114 87.0289 52.3556 86.9172 52.2997 86.8054L47.6075 76.3597L42.6919 78.7617L45.2614 96.0781Z" fill="#EDF4FC"/>
<path d="M64.3653 86.8613C63.9743 87.6434 63.1922 88.1461 62.2985 88.1461H54.3106C53.5286 88.1461 52.8583 87.7551 52.4114 87.1406L51.0149 88.8723L54.3665 97.5863H62.5219L65.8735 88.8723L64.3653 86.8613Z" fill="#5290DB"/>
<path d="M62.5776 97.5863H54.4222L50.0093 127.974L52.0761 141.604H64.9237L66.9905 127.974L62.5776 97.5863Z" fill="#3A70BF"/>
<path d="M95.423 107.418C104.4 107.418 111.678 100.14 111.678 91.1625C111.678 82.1851 104.4 74.9074 95.423 74.9074C86.4456 74.9074 79.168 82.1851 79.168 91.1625C79.168 100.14 86.4456 107.418 95.423 107.418Z" fill="#87D147"/>
<path d="M58.4999 71.6676C54.6456 71.6676 50.9031 70.6621 47.5515 68.7629V76.3597L52.2437 86.8054C52.6347 87.6433 53.4167 88.1461 54.3105 88.1461H62.2984C63.1921 88.1461 63.9742 87.6433 64.3652 86.8613L69.4484 76.3597V68.7629C66.0968 70.6621 62.3542 71.6676 58.4999 71.6676Z" fill="#F9D0B4"/>
<path d="M82.1286 32.566C81.6258 32.566 81.179 32.6219 80.6762 32.6778V49.4914C80.6762 49.9942 80.6762 50.4969 80.6204 50.9996C85.6477 51.8375 90.4516 48.3742 91.2336 43.3469C92.0157 38.3196 88.6082 33.5156 83.5809 32.7336C83.134 32.566 82.6313 32.566 82.1286 32.566Z" fill="#F9D0B4"/>
<path d="M36.3238 49.4356V32.6778C31.2965 31.8399 26.4926 35.2473 25.6547 40.3305C24.8168 45.3578 28.2242 50.1617 33.3074 50.9996C34.3129 51.1672 35.3742 51.1672 36.3797 50.9996C36.3238 50.441 36.3238 49.9383 36.3238 49.4356Z" fill="#F9D0B4"/>
<path d="M61.8517 22.5113C53.6962 32.7336 41.7423 31.2813 37.7205 30.4434C37.106 30.3316 36.4357 30.7227 36.324 31.3371V31.5605V49.4355C36.3798 61.6688 46.2669 71.6117 58.5001 71.6117C70.7333 71.5559 80.6763 61.6688 80.6763 49.4355V29.6613C80.6763 29.5496 80.6763 29.4379 80.6763 29.3262C80.6763 28.7117 80.1736 28.209 79.5033 28.1531C70.2865 27.8738 65.4267 24.243 63.5833 22.3996C63.1365 21.9527 62.3544 21.9527 61.9076 22.3996C61.9076 22.4555 61.8517 22.5113 61.8517 22.5113Z" fill="#F9D0B4"/>
<path d="M34.8714 32.566C35.3741 32.566 35.821 32.6219 36.3237 32.6777V31.6164C36.3237 30.9461 36.8823 30.4434 37.4968 30.4434H37.7202C41.7421 31.2812 53.696 32.7336 61.8515 22.5113C62.2425 22.0086 63.0245 21.8969 63.5272 22.2879C63.5831 22.2879 63.5831 22.3438 63.639 22.3996C65.4823 24.243 70.3421 27.8738 79.5589 28.1531C80.1733 28.1531 80.6761 28.7117 80.7319 29.3262V29.6613V32.6219C83.5808 32.175 86.4854 33.0688 88.6081 35.1355V18.4895C88.6081 11.507 82.9104 5.80937 75.928 5.80937C73.6378 5.80937 71.4034 6.42383 69.4483 7.59688C67.1022 3.74258 62.9686 1.39648 58.4999 1.39648H51.9644C39.3401 1.45234 29.062 11.6746 29.062 24.2988V34.577C30.7378 33.2363 32.7487 32.566 34.8714 32.566Z" fill="#818182"/>
<path d="M91.848 97.8656L86.8765 92.8941C85.7593 91.8328 85.7593 90.0453 86.8206 88.9281C87.882 87.8109 89.6695 87.8109 90.7867 88.8723L90.8425 88.9281L93.8589 91.9445L100.171 85.6324C101.288 84.5711 103.02 84.5711 104.137 85.6883C105.198 86.7496 105.198 88.4812 104.137 89.5984L95.8699 97.8656C94.7527 98.927 92.9652 98.927 91.848 97.8656Z" fill="#EDF4FC"/>
<path d="M58.4999 60.9426C54.4781 60.9426 50.7913 58.8758 48.6687 55.5242C48.2777 54.8539 48.4452 54.016 49.1156 53.5691C49.7859 53.1781 50.6238 53.3457 51.0706 54.016C53.6402 58.1496 59.1144 59.3785 63.248 56.809C64.3652 56.0828 65.3148 55.1332 66.0409 54.016C66.432 53.3457 67.3257 53.1781 67.996 53.5691C68.6663 53.9601 68.8339 54.8539 68.4429 55.5242C66.2085 58.8758 62.5218 60.9426 58.4999 60.9426Z" fill="black"/>
<path d="M48.9481 45.3578C50.3981 45.3578 51.5735 44.1824 51.5735 42.7324C51.5735 41.2825 50.3981 40.1071 48.9481 40.1071C47.4982 40.1071 46.3228 41.2825 46.3228 42.7324C46.3228 44.1824 47.4982 45.3578 48.9481 45.3578Z" fill="black"/>
<path d="M68.4989 45.3578C69.9489 45.3578 71.1243 44.1824 71.1243 42.7324C71.1243 41.2825 69.9489 40.1071 68.4989 40.1071C67.049 40.1071 65.8735 41.2825 65.8735 42.7324C65.8735 44.1824 67.049 45.3578 68.4989 45.3578Z" fill="black"/>
<path d="M52.0762 143H10.7402C8.11484 143 5.99219 140.877 5.99219 138.252C5.99219 138.196 5.99219 138.196 5.99219 138.14V138.084L9.51133 95.0168C9.79062 90.3246 13.0863 86.3586 17.6668 85.1856L32.693 81.3871C34.8715 80.8285 36.9941 80.0465 39.0051 79.0969L42.0215 77.5887C42.6918 77.2535 43.5297 77.5328 43.8648 78.2031C43.9207 78.3148 43.9766 78.4824 43.9766 78.5941L53.4727 141.38C53.5844 142.162 53.0816 142.832 52.2996 142.944C52.1879 143 52.132 143 52.0762 143ZM8.78516 138.196C8.78516 139.313 9.67891 140.151 10.7402 140.207H50.4562L41.5187 80.8844L40.1781 81.5547C37.9996 82.616 35.7094 83.4539 33.3074 84.0684L18.2812 87.8668C14.8738 88.7047 12.416 91.6652 12.2484 95.1844L8.78516 138.196Z" fill="black"/>
<path d="M106.26 143H64.9238C64.1418 143 63.5273 142.386 63.5273 141.604C63.5273 141.548 63.5273 141.492 63.5273 141.38L72.9676 78.5383C73.0793 77.7562 73.8055 77.2535 74.5316 77.3652C74.6992 77.3652 74.8109 77.4211 74.9227 77.4769L77.9391 78.9851C79.3355 79.6555 80.7879 80.2699 82.2961 80.7168C83.0223 80.9402 83.4133 81.7223 83.1898 82.4484C83.134 82.5602 83.0781 82.6719 83.0223 82.7836C78.4418 89.5984 80.2293 98.8152 87.0441 103.396C92.8535 107.306 100.618 106.636 105.645 101.72C106.204 101.161 107.098 101.217 107.6 101.776C107.824 101.999 107.936 102.334 107.991 102.614L110.896 137.917V137.973C110.952 140.598 108.885 142.777 106.26 142.832C106.316 143 106.316 143 106.26 143ZM66.5437 140.207H106.26C107.377 140.207 108.215 139.313 108.215 138.252L105.534 105.686C97.5457 111.272 86.5414 109.317 80.9555 101.329C77.157 95.9105 76.7102 88.7605 79.8383 82.8953C78.777 82.5043 77.7156 82.0574 76.766 81.5547L75.4254 80.8844L66.5437 140.207Z" fill="black"/>
<path d="M64.9238 143H52.0761C51.4058 143 50.7914 142.497 50.6797 141.827L41.2394 78.9851C41.1277 78.3707 41.4629 77.8121 42.0215 77.5328L46.9371 75.1308C47.6074 74.7957 48.4453 75.075 48.7804 75.7453V75.8011L53.4726 86.2468C53.6402 86.582 53.9195 86.7496 54.2547 86.7496H62.2425C62.5777 86.7496 62.857 86.582 63.0246 86.2468L68.1078 75.7453C68.4429 75.075 69.2808 74.7398 69.9511 75.075L74.8668 77.4769C75.4254 77.7562 75.7047 78.3148 75.6488 78.9293L66.3203 141.827C66.2086 142.497 65.5941 143 64.9238 143ZM53.2492 140.207H63.6949L72.8 79.5996L70.0629 78.259L65.5941 87.5316C64.9797 88.8164 63.6949 89.5984 62.2984 89.5984H54.3105C52.8582 89.5984 51.5734 88.7605 50.959 87.4199L46.8254 78.259L44.1441 79.5996L53.2492 140.207Z" fill="black"/>
<path d="M26.4927 142.05C25.7106 142.05 25.0962 141.436 25.0962 140.654V103.898C25.0962 103.116 25.7106 102.502 26.4927 102.502C27.2747 102.502 27.8892 103.116 27.8892 103.898V140.598C27.8892 141.38 27.2747 142.05 26.4927 142.05Z" fill="black"/>
<path d="M91.6245 142.05C90.8425 142.05 90.228 141.436 90.228 140.654V107.25C90.228 106.468 90.8425 105.854 91.6245 105.854C92.4065 105.854 93.021 106.468 93.021 107.25V140.598C93.021 141.38 92.4065 142.05 91.6245 142.05Z" fill="black"/>
<path d="M71.7388 97.4746C71.4036 97.4746 71.0126 97.3629 70.7892 97.0836C70.6775 96.9718 70.5657 96.8601 70.454 96.7484L63.2482 87.755C62.913 87.3082 62.8572 86.7496 63.0806 86.2468L68.1638 75.7453C68.499 75.075 69.3368 74.7398 70.0072 75.075L74.9228 77.4769C75.4814 77.7562 75.7607 78.3148 75.7048 78.9293L73.1353 96.2457C73.0236 96.9718 72.465 97.4746 71.7388 97.4746ZM65.9853 86.6937L70.845 92.7265L72.8001 79.5437L70.063 78.2031L65.9853 86.6937Z" fill="black"/>
<path d="M45.2614 97.4746C44.591 97.4746 43.9766 96.9719 43.8649 96.3015L41.2953 78.9851C41.1836 78.3707 41.5188 77.8121 42.0774 77.5328L46.993 75.1308C47.6633 74.7957 48.5012 75.075 48.8364 75.7453V75.8012L53.5285 86.2469C53.5285 86.3027 53.5844 86.3027 53.5844 86.3586C53.9196 86.8613 53.8637 87.5316 53.5285 87.9785L46.4903 96.6926C46.3785 96.8043 46.2668 96.916 46.1551 97.0277C45.9317 97.3629 45.5965 97.4746 45.2614 97.4746ZM44.2 79.5996L46.1551 92.7824L50.7914 87.0289L46.8813 78.3148L44.2 79.5996Z" fill="black"/>
<path d="M62.5776 98.9828H54.4222C53.8636 98.9828 53.305 98.6477 53.1374 98.0891L49.7858 89.375C49.6183 88.9281 49.6741 88.3695 50.0093 87.9785L51.4058 86.2469C51.6851 85.9117 52.1319 85.6883 52.5788 85.7441C53.0257 85.7441 53.4167 86.0234 53.696 86.3586C53.8636 86.582 54.1429 86.7496 54.4222 86.7496H62.4101C62.7452 86.7496 63.0245 86.582 63.1921 86.2469C63.5272 85.5766 64.3651 85.2414 65.0355 85.5766C65.203 85.6883 65.3706 85.8 65.5382 85.9676L67.1581 87.9226C67.4933 88.3137 67.5491 88.8164 67.3815 89.3191L64.03 98.0332C63.639 98.6476 63.1362 98.9828 62.5776 98.9828ZM55.3718 96.1898H61.5722L64.3093 89.0957L64.1976 88.984C63.639 89.375 62.9128 89.5426 62.2425 89.5426H54.2546C53.696 89.5426 53.0815 89.4309 52.5788 89.1516L55.3718 96.1898Z" fill="black"/>
<path d="M64.9237 143H52.0761C51.4058 143 50.7913 142.497 50.6796 141.827L48.6128 128.197C48.6128 128.086 48.6128 127.918 48.6128 127.806L53.0257 97.4188C53.1374 96.7485 53.696 96.2457 54.4222 96.2457H62.5776C63.2479 96.2457 63.8624 96.7485 63.9741 97.4188L68.387 127.806V128.197L66.3202 141.827C66.2085 142.497 65.594 143 64.9237 143ZM53.2491 140.207H63.6948L65.5382 127.974L61.3487 98.9828H55.6511L51.4616 127.974L53.2491 140.207Z" fill="black"/>
<path d="M95.423 108.814C85.7035 108.814 77.7715 100.938 77.7715 91.1625C77.7715 81.3871 85.6477 73.5109 95.423 73.5109C105.198 73.5109 113.075 81.3871 113.075 91.1625C113.075 100.938 105.198 108.814 95.423 108.814ZM95.423 76.3039C87.2117 76.3039 80.5645 82.9512 80.5645 91.1625C80.5645 99.3738 87.2117 106.021 95.423 106.021C103.634 106.021 110.282 99.3738 110.282 91.1625C110.282 83.007 103.634 76.3598 95.423 76.3039Z" fill="black"/>
<path d="M22.5822 16.702H21.4092V15.5289C21.4092 14.691 20.683 13.9648 19.8451 13.9648C19.0072 13.9648 18.2811 14.6352 18.2811 15.5289V16.702H17.108C16.2701 16.702 15.5439 17.4281 15.5439 18.266C15.5439 19.1039 16.2701 19.8301 17.108 19.8301H18.2811V21.0031C18.2811 21.841 19.0072 22.5672 19.8451 22.5672C20.683 22.5672 21.4092 21.841 21.4092 21.0031V19.8301H22.5822C23.4201 19.8301 24.1463 19.1039 24.1463 18.266C24.1463 17.3723 23.4201 16.702 22.5822 16.702Z" fill="#70D6F9"/>
<path d="M100.283 58.5965C98.0484 58.2055 96.3168 56.4738 95.8699 54.2953C95.8699 54.2394 95.8141 54.1836 95.7582 54.2394C95.7023 54.2394 95.7023 54.2953 95.7023 54.2953C95.2555 56.5297 93.5238 58.2055 91.2895 58.5965C91.2336 58.5965 91.1777 58.6523 91.1777 58.7082C91.1777 58.7641 91.2336 58.7641 91.2895 58.8199C93.5238 59.2109 95.2555 60.9426 95.7023 63.1211C95.7023 63.177 95.7582 63.2328 95.8141 63.177C95.8699 63.177 95.8699 63.1211 95.8699 63.1211C96.3168 60.8867 98.0484 59.2109 100.283 58.8199C100.339 58.8199 100.395 58.7641 100.395 58.7082C100.395 58.5965 100.339 58.5965 100.283 58.5965Z" fill="#F5C84C"/>
<path d="M16.6055 34.0742C17.531 34.0742 18.2812 33.3239 18.2812 32.3984C18.2812 31.4729 17.531 30.7227 16.6055 30.7227C15.68 30.7227 14.9297 31.4729 14.9297 32.3984C14.9297 33.3239 15.68 34.0742 16.6055 34.0742Z" fill="#87D147"/>
<path d="M103.188 69.8242C104.113 69.8242 104.863 69.0739 104.863 68.1484C104.863 67.2229 104.113 66.4727 103.188 66.4727C102.262 66.4727 101.512 67.2229 101.512 68.1484C101.512 69.0739 102.262 69.8242 103.188 69.8242Z" fill="#FC657E"/>
<path d="M2.08203 111.719C3.00754 111.719 3.75781 110.968 3.75781 110.043C3.75781 109.117 3.00754 108.367 2.08203 108.367C1.15652 108.367 0.40625 109.117 0.40625 110.043C0.40625 110.968 1.15652 111.719 2.08203 111.719Z" fill="#F5C84C"/>
<path d="M62.2984 89.5426H54.3105C52.8582 89.5426 51.5734 88.7047 50.9589 87.3641L46.2667 76.9184C46.2109 76.7508 46.155 76.5274 46.155 76.3598V68.7629C46.155 67.9809 46.7695 67.3664 47.5515 67.3664C47.775 67.3664 48.0542 67.4223 48.2218 67.534C54.5898 71.1649 62.4101 71.1649 68.7222 67.534C69.3925 67.143 70.2304 67.3664 70.6214 68.0368C70.7331 68.2602 70.789 68.4836 70.789 68.7071V76.3039C70.789 76.5274 70.7331 76.7508 70.6773 76.9184L65.5941 87.42C64.9796 88.7606 63.6949 89.5426 62.2984 89.5426ZM48.948 76.0805L53.5285 86.2469C53.696 86.5821 53.9753 86.7496 54.3105 86.7496H62.2984C62.6335 86.7496 62.9128 86.5821 63.0804 86.2469L68.0519 76.0246V70.9973C61.9632 73.7344 55.0367 73.7344 48.948 70.9973V76.0805Z" fill="black"/>
<path d="M82.1285 52.452C81.5699 52.452 81.0113 52.3961 80.4527 52.2844C79.7265 52.1727 79.2238 51.5582 79.2796 50.832C79.3355 50.2734 79.3355 49.8266 79.3355 49.4355V32.6777C79.3355 32.0074 79.8382 31.393 80.5085 31.2812C86.3179 30.3875 91.7921 34.3535 92.6859 40.1629C93.5796 45.9723 89.6136 51.4465 83.8042 52.3402C83.2456 52.452 82.687 52.452 82.1285 52.452ZM82.0726 49.659C86.4296 49.7148 90.0046 46.1957 90.0605 41.8387C90.1163 37.4816 86.5972 33.9625 82.2402 33.9066C82.1843 33.9066 82.1285 33.9066 82.1285 33.9066H82.0726V49.4355V49.659Z" fill="black"/>
<path d="M34.8715 52.452C29.0063 52.452 24.2024 47.7039 24.2024 41.8387C24.2024 35.9735 28.9504 31.1696 34.8157 31.1696C35.3743 31.1696 35.9329 31.2254 36.5473 31.2813C37.2176 31.393 37.7204 31.9516 37.7204 32.6778V49.4914C37.7204 49.8824 37.7204 50.3293 37.7762 50.8879C37.8321 51.6141 37.3293 52.2285 36.6032 52.3403C36.0446 52.3961 35.4301 52.452 34.8715 52.452ZM34.8715 33.9625C30.5145 34.0184 27.0512 37.5375 27.0512 41.8946C27.1071 46.1957 30.5704 49.659 34.8715 49.7149H34.9274C34.9274 49.659 34.9274 49.5473 34.9274 49.4914L34.8715 33.9625Z" fill="black"/>
<path d="M58.4999 73.064C45.4847 73.064 34.9272 62.5066 34.9272 49.4914V31.6164C34.9272 30.8343 35.2624 30.1082 35.8769 29.6054C36.4913 29.1027 37.2733 28.9351 38.0554 29.1027C42.4124 29.9964 53.2491 31.1136 60.7901 21.6734C61.6839 20.5562 63.3038 20.3886 64.421 21.2265C64.4769 21.2824 64.5886 21.3382 64.6444 21.3941C66.2085 22.9023 70.789 26.4773 79.6706 26.7566C81.0671 26.8125 82.1284 27.9296 82.1843 29.2703V29.6613V49.4355C82.0725 62.5066 71.5151 73.064 58.4999 73.064ZM37.7202 31.8398V49.4355C37.7202 60.9425 47.0487 70.2152 58.4999 70.2152C69.9511 70.2152 79.2796 60.8867 79.2796 49.4355V29.6613C79.2796 29.6054 79.2796 29.6054 79.2796 29.5496C70.1186 29.2144 65.0354 25.7511 62.7452 23.5726C54.2546 34.0742 41.7421 32.6777 37.7202 31.8398Z" fill="black"/>
<path d="M88.5523 36.532C88.2172 36.532 87.8261 36.3645 87.6027 36.141C86.1504 34.7445 84.1953 33.9066 82.1285 33.9066C81.7375 33.9066 81.2906 33.9625 80.8996 34.0184C80.1175 34.1301 79.4472 33.6273 79.2796 32.8453C79.2796 32.7895 79.2796 32.6777 79.2796 32.6219V29.6613C79.2796 29.6055 79.2796 29.6055 79.2796 29.5496C70.1187 29.2145 65.0355 25.7512 62.7453 23.5727C54.2546 34.0742 41.7421 32.6777 37.7203 31.8398V32.6219C37.7203 33.4039 37.1058 34.0184 36.3238 34.0184C36.2679 34.0184 36.1562 34.0184 36.1003 34.0184C35.7093 33.9625 35.3183 33.9066 34.8714 33.9066C33.0839 33.9066 31.3523 34.5211 29.9558 35.6383C29.3414 36.141 28.4476 36.0293 28.0007 35.4148C27.7773 35.1914 27.7214 34.8563 27.7214 34.5211V24.2988C27.7214 10.8926 38.614 0 52.0203 0H58.5C62.9687 0 67.1582 2.17852 69.8394 5.75352C71.7386 4.85977 73.7496 4.35703 75.8722 4.35703C83.6367 4.35703 89.9488 10.6691 89.9488 18.4336V35.0797C89.9488 35.9176 89.3343 36.532 88.5523 36.532ZM82.1285 31.1695C83.8601 31.1695 85.5918 31.6164 87.1558 32.4543V18.4895C87.1558 12.2891 82.1843 7.20586 75.9281 7.20586C73.8613 7.20586 71.8504 7.76445 70.1187 8.82578C69.4484 9.2168 68.6105 8.99336 68.2195 8.32305C66.1527 4.91562 62.466 2.79297 58.5 2.79297H51.9644C40.1222 2.79297 30.5144 12.4566 30.5144 24.2988V32.0633C31.9109 31.4488 33.4191 31.1137 34.9832 31.1137C35.2625 29.7172 36.6031 28.7676 37.9996 29.0469H38.0554C42.4125 29.9406 53.2492 31.0578 60.7902 21.6176C61.6839 20.5004 63.3039 20.3328 64.4211 21.1707C64.4769 21.2266 64.5886 21.2824 64.6445 21.3383C66.2086 22.8465 70.789 26.4215 79.6707 26.7008C81.0671 26.7566 82.1285 27.8738 82.1843 29.2145V29.6055L82.1285 31.1695Z" fill="black"/>
<path d="M93.8588 100.044C92.7416 100.044 91.6803 99.5973 90.8982 98.8152L85.9268 93.8437C84.251 92.2238 84.251 89.5984 85.8709 87.9226C87.4908 86.2469 90.1162 86.2469 91.792 87.8668L91.8478 87.9226L93.8588 89.9336L99.1654 84.6269C100.785 82.9512 103.411 82.9512 105.087 84.5711C106.762 86.191 106.762 88.8164 105.142 90.4922L105.087 90.548L96.8193 98.8711C96.0373 99.6531 94.976 100.044 93.8588 100.044ZM92.8533 96.8601C93.4119 97.4187 94.3057 97.4187 94.8084 96.8601L103.076 88.593C103.634 88.0344 103.634 87.1406 103.076 86.6379C102.517 86.1352 101.679 86.1352 101.12 86.6379L94.8084 92.8941C94.2498 93.4527 93.356 93.4527 92.8533 92.8941L89.8369 89.8777C89.2783 89.375 88.4404 89.375 87.8818 89.8777C87.3232 90.4363 87.3232 91.3301 87.8818 91.8328L92.8533 96.8601Z" fill="black"/>
</svg>
