<svg width="152" height="152" viewBox="0 0 152 152" fill="none" xmlns="http://www.w3.org/2000/svg">
<g clip-path="url(#clip0)">
<path d="M111.094 149.773H44.5942C39.6753 149.773 35.688 145.786 35.688 140.867V11.1328C35.688 6.21389 39.6753 2.22656 44.5942 2.22656H111.094C116.013 2.22656 120 6.21389 120 11.1328V140.867C120 145.786 116.013 149.773 111.094 149.773Z" fill="#BDF9FF"/>
<path d="M111.094 2.22656H102.188C107.107 2.22656 111.094 6.21389 111.094 11.1328V140.867C111.094 145.786 107.107 149.773 102.188 149.773H111.094C116.013 149.773 120 145.786 120 140.867V11.1328C120 6.21389 116.013 2.22656 111.094 2.22656Z" fill="#8CF2FF"/>
<path d="M111.094 149.773H44.5942C39.6753 149.773 35.688 145.786 35.688 140.867V130.625H120V140.867C120 145.786 116.013 149.773 111.094 149.773Z" fill="#8C9EFF"/>
<path d="M111.094 130.625V140.867C111.094 145.786 107.107 149.773 102.188 149.773H111.094C116.013 149.773 120 145.786 120 140.867V130.625H111.094Z" fill="#7488ED"/>
<path d="M97.3938 14.1016H58.2063C56.5667 14.1016 55.2375 12.7725 55.2375 11.1328V2.22656H100.363V11.1328C100.363 12.7725 99.0334 14.1016 97.3938 14.1016Z" fill="#8C9EFF"/>
<path d="M133.297 35.3281V81.1235C133.297 81.7793 132.765 82.311 132.109 82.311H84.1427C83.6998 82.311 83.2936 82.5577 83.0891 82.9507L76.5264 95.5712C76.3046 95.9975 75.6948 95.9975 75.473 95.5712L68.9103 82.9507C68.7061 82.5577 68.2997 82.311 67.8567 82.311H19.8906C19.2348 82.311 18.7031 81.7793 18.7031 81.1235V35.3281C18.7031 34.6723 19.2348 34.1406 19.8906 34.1406H132.109C132.765 34.1406 133.297 34.6723 133.297 35.3281Z" fill="#FF3D7A"/>
<path d="M132.109 34.1406H123.203C123.859 34.1406 124.391 34.6723 124.391 35.3281V81.1235C124.391 81.7793 123.859 82.311 123.203 82.311H132.109C132.765 82.311 133.297 81.7793 133.297 81.1235V35.3281C133.297 34.6723 132.765 34.1406 132.109 34.1406Z" fill="#EB3870"/>
<path d="M55.8125 69.1719H35.625C34.6412 69.1719 33.8438 68.3745 33.8438 67.3906V47.2031C33.8438 46.2193 34.6412 45.4219 35.625 45.4219H55.8125C56.7963 45.4219 57.5938 46.2193 57.5938 47.2031V67.3906C57.5938 68.3745 56.7963 69.1719 55.8125 69.1719Z" fill="#F5F5F5"/>
<path d="M91.6195 137.75H64.0686C62.8389 137.75 61.842 138.747 61.842 139.977C61.842 141.206 62.8389 142.203 64.0686 142.203H91.6195C92.8492 142.203 93.8461 141.206 93.8461 139.977C93.8461 138.747 92.8492 137.75 91.6195 137.75Z" fill="black"/>
<path d="M132.109 31.9141H122.226V28.3516C122.226 27.1219 121.229 26.125 120 26.125C118.77 26.125 117.773 27.1219 117.773 28.3516V31.9141H57.0715C55.8419 31.9141 54.845 32.911 54.845 34.1406C54.845 35.3703 55.8419 36.3672 57.0715 36.3672H131.07V80.0844H84.1427C82.8641 80.0844 81.7036 80.7892 81.1137 81.9235L76 91.7575L70.8863 81.9235C70.2964 80.7892 69.136 80.0844 67.8573 80.0844H20.9297V36.3672H47.5163C48.746 36.3672 49.7429 35.3703 49.7429 34.1406C49.7429 32.911 48.746 31.9141 47.5163 31.9141H37.9139V11.1328C37.9139 7.44948 40.9103 4.45312 44.5936 4.45312H53.0112V11.1328C53.0112 13.9974 55.342 16.3281 58.2065 16.3281H97.394C100.259 16.3281 102.589 13.9974 102.589 11.1328V4.45312H111.094C114.777 4.45312 117.773 7.44948 117.773 11.1328V18.8516C117.773 20.0812 118.77 21.0781 120 21.0781C121.229 21.0781 122.226 20.0812 122.226 18.8516V11.1328C122.226 4.99403 117.232 0 111.094 0H44.5936C38.4548 0 33.4608 4.99403 33.4608 11.1328V31.9141H19.8906C18.0081 31.9141 16.4766 33.4456 16.4766 35.3281V81.1235C16.4766 83.006 18.0081 84.5375 19.8906 84.5375H33.4608V113.852C33.4608 115.081 34.4577 116.078 35.6873 116.078C36.917 116.078 37.9139 115.081 37.9139 113.852V84.5375H67.2265L73.4979 96.5981C73.9851 97.5353 74.944 98.1175 76 98.1175C77.056 98.1175 78.0149 97.5353 78.5021 96.5984L84.7736 84.5378H117.773V128.398H37.9139V123.628C37.9139 122.398 36.917 121.401 35.6873 121.401C34.4577 121.401 33.4608 122.398 33.4608 123.628V140.867C33.4608 147.006 38.4548 152 44.5936 152H111.094C117.232 152 122.226 147.006 122.226 140.867V130.671C122.227 130.656 122.227 130.64 122.227 130.625C122.227 130.61 122.227 130.594 122.226 130.579V84.5375H132.109C133.992 84.5375 135.523 83.006 135.523 81.1235V35.3281C135.523 33.4456 133.992 31.9141 132.109 31.9141ZM98.1359 4.45312V11.1328C98.1359 11.5419 97.8028 11.875 97.3937 11.875H58.2062C57.7971 11.875 57.464 11.5419 57.464 11.1328V4.45312H98.1359ZM111.094 147.547H44.5936C40.9103 147.547 37.9139 144.551 37.9139 140.867V132.852H117.773V140.867C117.773 144.551 114.777 147.547 111.094 147.547Z" fill="black"/>
<path d="M31.6172 47.2031V67.3906C31.6172 69.6006 33.4151 71.3984 35.625 71.3984H55.8125C58.0224 71.3984 59.8203 69.6006 59.8203 67.3906V47.2031C59.8203 44.9932 58.0224 43.1953 55.8125 43.1953H35.625C33.4151 43.1953 31.6172 44.9932 31.6172 47.2031ZM36.0703 47.6484H55.3672V66.9453H36.0703V47.6484Z" fill="black"/>
<path d="M67.3906 52.9922H114.891C116.12 52.9922 117.117 51.9953 117.117 50.7656C117.117 49.536 116.12 48.5391 114.891 48.5391H67.3906C66.161 48.5391 65.1641 49.536 65.1641 50.7656C65.1641 51.9953 66.161 52.9922 67.3906 52.9922Z" fill="black"/>
<path d="M67.3906 66.6484H114.891C116.12 66.6484 117.117 65.6515 117.117 64.4219C117.117 63.1922 116.12 62.1953 114.891 62.1953H67.3906C66.161 62.1953 65.1641 63.1922 65.1641 64.4219C65.1641 65.6515 66.161 66.6484 67.3906 66.6484Z" fill="black"/>
</g>
<defs>
<clipPath id="clip0">
<rect width="152" height="152" fill="white"/>
</clipPath>
</defs>
</svg>
