<svg width="164" height="164" viewBox="0 0 164 164" fill="none" xmlns="http://www.w3.org/2000/svg">
<path d="M87.125 89.6875V151.188C87.125 153.314 86.2537 155.236 84.87 156.62C83.4862 158.004 81.5644 158.875 79.4375 158.875C75.1838 158.875 71.75 155.441 71.75 151.188V87.125H87.125V89.6875Z" fill="#CF9E76"/>
<path d="M102.5 87.125V151.188C102.5 153.314 101.629 155.236 100.245 156.62C98.8612 158.004 96.9394 158.875 94.8125 158.875C90.5588 158.875 87.125 155.441 87.125 151.188V89.6875V87.125H102.5Z" fill="#CF9E76"/>
<path d="M148.625 26.65V27.1369C148.625 29.3663 147.421 31.4162 145.473 32.5181L107.779 53.4538C104.524 55.2475 102.5 58.6813 102.5 62.3969V87.125H87.125H71.75V84.46V69.1875C71.75 61.3975 68.5981 54.3506 63.4988 49.2512C59.04 44.7925 53.095 41.82 46.4581 41.1537C45.51 41.0512 44.5362 41 43.5625 41H79.4375C79.4375 46.6631 82.8713 51.25 87.125 51.25C91.3787 51.25 94.8125 46.6631 94.8125 41H96.0938C100.296 41 104.447 39.975 108.163 37.9762L139.579 21.2175C140.476 20.7562 141.476 20.5 142.475 20.5C145.883 20.5 148.625 23.2419 148.625 26.65Z" fill="#FCD770"/>
<path d="M21.7812 41H43.5625C42.5888 41 41.615 41.0512 40.6669 41.1537C32.0825 42.025 24.6256 46.74 20.09 53.5819C17.3738 52.8387 15.375 50.3531 15.375 47.4062C15.375 43.87 18.245 41 21.7812 41Z" fill="#FCD770"/>
<path d="M58.9375 97.375V151.188C58.9375 153.314 58.0663 155.236 56.6825 156.62C55.2988 158.004 53.3769 158.875 51.25 158.875C46.9963 158.875 43.5625 155.441 43.5625 151.188V87.125H58.9375V97.375Z" fill="#838F9B"/>
<path d="M43.5625 87.125V151.188C43.5625 155.441 40.1287 158.875 35.875 158.875C33.7481 158.875 31.8263 158.004 30.4425 156.62C29.0588 155.236 28.1875 153.314 28.1875 151.188V97.375V87.125H43.5625Z" fill="#838F9B"/>
<path d="M28.1875 87.125V97.375H25.625C19.9619 97.375 15.375 92.7881 15.375 87.125V69.1875C15.375 63.4219 17.1175 58.0406 20.09 53.5819C24.6256 46.74 32.0825 42.025 40.6669 41.1537L38.4375 66.625L43.5625 71.75L48.6875 66.625L46.4581 41.1537C53.095 41.82 59.04 44.7925 63.4988 49.2512C68.5981 54.3506 71.75 61.3975 71.75 69.1875V84.46V87.125C71.75 92.7881 67.1631 97.375 61.5 97.375H58.9375V87.125H43.5625H28.1875Z" fill="#FF826E"/>
<path d="M46.4581 41.1537L48.6875 66.625L43.5625 71.75L38.4375 66.625L40.6669 41.1537C41.615 41.0512 42.5887 41 43.5625 41C44.5363 41 45.51 41.0512 46.4581 41.1537Z" fill="#E6E9ED"/>
<path d="M43.5625 41C53.4691 41 61.5 32.9691 61.5 23.0625C61.5 13.1559 53.4691 5.125 43.5625 5.125C33.6559 5.125 25.625 13.1559 25.625 23.0625C25.625 32.9691 33.6559 41 43.5625 41Z" fill="#F0D0B4"/>
<path d="M87.125 41H94.8125C94.8125 46.6631 91.3787 51.25 87.125 51.25C82.8713 51.25 79.4375 46.6631 79.4375 41H87.125Z" fill="#F0D0B4"/>
<path d="M87.125 41C97.0316 41 105.062 32.9691 105.062 23.0625C105.062 13.1559 97.0316 5.125 87.125 5.125C77.2184 5.125 69.1875 13.1559 69.1875 23.0625C69.1875 32.9691 77.2184 41 87.125 41Z" fill="#F0D0B4"/>
<path d="M142.475 17.9375C141.048 17.9375 139.631 18.2937 138.375 18.9599L106.946 35.7212C105.173 36.6668 103.276 37.3561 101.324 37.8122C105.201 34.0812 107.625 28.8538 107.625 23.0625C107.625 11.7593 98.4282 2.5625 87.125 2.5625C75.8218 2.5625 66.625 11.7593 66.625 23.0625C66.625 29.1869 69.3387 34.6783 73.6104 38.4375H57.0746C61.3488 34.6783 64.0625 29.1869 64.0625 23.0625C64.0625 11.7593 54.8657 2.5625 43.5625 2.5625C32.2593 2.5625 23.0625 11.7593 23.0625 23.0625C23.0625 29.1869 25.7762 34.6783 30.0479 38.4375H21.7812C16.8356 38.4375 12.8125 42.4606 12.8125 47.4062C12.8125 50.3198 14.2398 52.9669 16.4897 54.6222C14.1476 58.9606 12.8125 63.919 12.8125 69.1875V87.125C12.8125 94.1898 18.5602 99.9375 25.625 99.9375V151.188C25.625 156.84 30.2221 161.438 35.875 161.438C38.95 161.438 41.6816 160.049 43.5625 157.896C45.4434 160.049 48.175 161.438 51.25 161.438C56.9029 161.438 61.5 156.84 61.5 151.188V99.9375C64.3956 99.9375 67.0401 98.9356 69.1875 97.3084V151.188C69.1875 156.84 73.7846 161.438 79.4375 161.438C82.5125 161.438 85.2441 160.049 87.125 157.896C89.0059 160.049 91.7375 161.438 94.8125 161.438C100.465 161.438 105.062 156.84 105.062 151.188V62.4071C105.062 59.6166 106.577 57.0413 109.016 55.6883L146.706 34.7475C149.471 33.2126 151.188 30.2939 151.188 27.1318V26.65C151.188 21.8453 147.28 17.9375 142.475 17.9375ZM87.125 43.5625H91.9246C91.2019 46.5094 89.3057 48.6875 87.125 48.6875C84.9443 48.6875 83.0506 46.5094 82.3254 43.5625H87.125ZM71.75 23.0625C71.75 14.5832 78.6457 7.6875 87.125 7.6875C95.6043 7.6875 102.5 14.5832 102.5 23.0625C102.5 31.5418 95.6043 38.4375 87.125 38.4375C78.6457 38.4375 71.75 31.5418 71.75 23.0625ZM46.0302 65.6564L43.5625 68.1266L41.0948 65.6564L43.0218 43.5907C43.2012 43.5856 43.3806 43.5625 43.5625 43.5625C43.7444 43.5625 43.9238 43.5856 44.1057 43.5907L46.0302 65.6564ZM28.1875 23.0625C28.1875 14.5832 35.0832 7.6875 43.5625 7.6875C52.0418 7.6875 58.9375 14.5832 58.9375 23.0625C58.9375 31.5418 52.0418 38.4375 43.5625 38.4375C35.0832 38.4375 28.1875 31.5418 28.1875 23.0625ZM17.9375 47.4062C17.9375 45.2871 19.6621 43.5625 21.7812 43.5625H26.6013C23.8261 45.4049 21.3815 47.6958 19.3366 50.3172C18.491 49.6023 17.9375 48.5645 17.9375 47.4062ZM35.875 156.312C33.0486 156.312 30.75 154.014 30.75 151.188V89.6875H41V151.188C41 154.014 38.7014 156.312 35.875 156.312ZM51.25 156.312C48.4236 156.312 46.125 154.014 46.125 151.188V89.6875H56.375V151.188C56.375 154.014 54.0764 156.312 51.25 156.312ZM61.5 94.8125V58.9375H56.375V84.5625H30.75V58.9375H25.625V94.8125C21.3866 94.8125 17.9375 91.3634 17.9375 87.125V69.1875C17.9375 57.0361 26.4501 46.8527 37.8199 44.2339L35.7827 67.5936L43.5625 75.3734L51.3448 67.5936L49.3076 44.2339C60.6749 46.8527 69.1875 57.0361 69.1875 69.1875V84.4549V87.125C69.1875 91.3634 65.7384 94.8125 61.5 94.8125ZM79.4375 156.312C76.6111 156.312 74.3125 154.014 74.3125 151.188V89.6875H84.5625V151.188C84.5625 154.014 82.2639 156.312 79.4375 156.312ZM94.8125 156.312C91.9861 156.312 89.6875 154.014 89.6875 151.188V89.6875H99.9375V151.188C99.9375 154.014 97.6389 156.312 94.8125 156.312ZM146.062 27.1318C146.062 28.4335 145.355 29.6353 144.217 30.2683L106.528 51.209C102.464 53.464 99.9375 57.7562 99.9375 62.4071V84.5625H74.3125V84.4549V69.1875C74.3125 58.4967 68.8236 49.0744 60.5237 43.5625H77.0826C78.0358 49.4024 82.1742 53.8125 87.125 53.8125C92.0937 53.8125 96.2398 49.3691 97.1726 43.4959C101.416 43.3319 105.608 42.2479 109.36 40.2466L140.789 23.4827C141.304 23.2086 141.888 23.0625 142.475 23.0625C144.453 23.0625 146.062 24.6717 146.062 26.65V27.1318Z" fill="black"/>
</svg>
