<svg width="153" height="153" viewBox="0 0 153 153" fill="none" xmlns="http://www.w3.org/2000/svg">
<g clip-path="url(#clip0)">
<path d="M119.842 56.3203C124.334 56.3203 127.975 52.6799 127.977 48.1868C127.977 43.6952 124.335 40.0534 119.842 40.0534C115.35 40.0549 111.71 43.6966 111.71 48.1883C111.711 52.6785 115.352 56.3188 119.842 56.3203ZM68.2226 48.436H53.7354C52.3131 48.436 51.1586 49.5906 51.1586 51.0128V58.722H35.884C29.8463 58.722 24.9503 63.6165 24.9503 69.6557V102.011C24.9503 108.051 29.8463 112.945 35.884 112.945H100.776C106.815 112.945 111.71 108.051 111.71 102.011V102.1C120.693 102.1 127.977 94.8176 127.977 85.8343C127.977 76.8509 120.693 69.5675 111.71 69.5675V69.6557C111.71 63.6165 106.815 58.722 100.776 58.722H85.5016V51.0128C85.5002 49.5906 84.3485 48.4374 82.9248 48.436H68.2226ZM149.356 75.0785C149.399 92.3874 143.223 109.135 131.953 122.272L144.088 150.813L101.764 143.407C93.6692 146.421 85.1016 147.966 76.4642 147.97C36.2058 147.97 3.57251 115.337 3.57251 75.0785C3.57251 34.82 36.2058 2.18677 76.4642 2.18677C116.721 2.18677 149.356 34.82 149.356 75.0785Z" fill="#F8EC7D"/>
<path d="M119.842 56.3202C115.351 56.3188 111.71 52.6771 111.71 48.1854C111.712 43.6938 115.353 40.0534 119.845 40.0534C124.337 40.0549 127.977 43.6966 127.977 48.1883C127.976 52.6799 124.334 56.3217 119.842 56.3202Z" fill="#E48E66"/>
<path d="M111.71 69.5674C120.694 69.5674 127.977 76.8509 127.977 85.8343C127.977 94.8176 120.694 102.1 111.71 102.1V69.5674Z" fill="#6FE3FF"/>
<path d="M51.1587 58.722H100.776C106.816 58.722 111.71 63.6165 111.71 69.6557V102.011C111.71 108.051 106.816 112.945 100.776 112.945H35.8842C29.8464 112.945 24.9504 108.051 24.9504 102.011V69.6557C24.9504 63.6165 29.8464 58.722 35.8842 58.722H51.1587ZM96.8328 87.5498V83.209C96.8328 80.3916 94.5492 78.1066 91.7304 78.1066H91.6321C88.8147 78.1066 86.5297 80.3916 86.5297 83.209V87.5498H96.8328ZM78.6326 95.8711V95.7757H58.0293V95.8711C58.0279 101.507 62.5979 106.077 68.2342 106.076H68.4278C74.0641 106.077 78.634 101.507 78.6326 95.8711ZM50.128 87.5498V83.209C50.128 80.3916 47.843 78.1066 45.0256 78.1066H44.9302C42.1127 78.1066 39.8278 80.3916 39.8278 83.209V87.5498H50.128Z" fill="#E48E66"/>
<path d="M96.8329 83.209V87.5498H86.5298V83.209C86.5298 80.3916 88.8148 78.1066 91.6322 78.1066H91.7304C94.5493 78.1066 96.8329 80.3916 96.8329 83.209Z" fill="#6FE3FF"/>
<path d="M85.5018 51.0128V58.722H51.1587V51.0128C51.1587 49.5906 52.3133 48.436 53.7355 48.436H82.925C84.3486 48.4374 85.5004 49.5906 85.5018 51.0128Z" fill="#6FE3FF"/>
<path d="M78.6326 95.7758V95.8711C78.634 101.507 74.0641 106.077 68.4278 106.076H68.2341C62.5978 106.077 58.0279 101.507 58.0293 95.8711V95.7758H78.6326Z" fill="#6FE3FF"/>
<path d="M50.1281 83.209V87.5498H39.8279V83.209C39.8279 80.3916 42.1129 78.1066 44.9303 78.1066H45.0257C47.8431 78.1066 50.1281 80.3916 50.1281 83.209Z" fill="#6FE3FF"/>
<path d="M151.543 75.0784C151.543 33.6797 117.862 0 76.4647 0C35.0659 0 1.38623 33.6797 1.38623 75.0784C1.38623 116.477 35.0659 150.157 76.4647 150.157C85.1619 150.154 93.7907 148.634 101.965 145.662L143.713 152.967C144.502 153.105 145.303 152.801 145.802 152.173C146.3 151.545 146.415 150.695 146.102 149.958L134.489 122.649C145.554 109.269 151.587 92.44 151.543 75.0784ZM130.288 120.855C129.751 121.486 129.616 122.366 129.94 123.129L140.503 147.966L102.142 141.253C101.76 141.186 101.367 141.222 101.004 141.357C93.1529 144.281 84.843 145.779 76.4647 145.783C37.4776 145.783 5.75973 114.066 5.75973 75.0784C5.75973 36.0914 37.4776 4.3735 76.4647 4.3735C115.45 4.3735 147.17 36.0914 147.17 75.0784C147.212 91.8677 141.222 108.113 130.288 120.855Z" fill="#63316D"/>
<path d="M130.164 48.1883C130.164 42.7741 125.981 38.2796 120.579 37.8923C115.178 37.5065 110.397 41.3604 109.629 46.7205C108.858 52.0806 112.364 57.1232 117.655 58.2707V68.3687C116.378 67.9331 115.057 67.6384 113.716 67.4918C112.651 61.1735 107.186 56.5438 100.778 56.5352H87.6885V51.0128C87.6857 48.3833 85.5545 46.2535 82.925 46.2492H70.4095V40.882C70.4095 39.6733 69.4314 38.6953 68.2228 38.6953C67.0155 38.6953 66.036 39.6733 66.036 40.882V46.2492H53.7355C51.106 46.2535 48.9762 48.3833 48.9719 51.0128V56.5352H35.8842C28.642 56.5423 22.7722 62.4121 22.7637 69.6557V102.011C22.7722 109.255 28.642 115.125 35.8842 115.132H100.776C107.184 115.123 112.651 110.494 113.715 104.175C121.412 103.337 127.766 97.7803 129.623 90.2633C131.481 82.7478 128.447 74.8706 122.027 70.5427V58.2707C126.771 57.2385 130.157 53.043 130.164 48.1883ZM53.3454 51.0128C53.3469 50.7979 53.5206 50.6242 53.7355 50.6227H82.925C83.1414 50.6242 83.315 50.7979 83.315 51.0128V56.5352H53.3454V51.0128ZM100.776 110.758H35.8842C31.0565 110.754 27.1429 106.84 27.1372 102.011V69.6557C27.1429 64.8267 31.0565 60.9144 35.8842 60.9087H100.776C105.605 60.9144 109.518 64.8267 109.523 69.6557V102.011C109.518 106.84 105.605 110.754 100.776 110.758ZM125.79 85.8343C125.782 92.7618 120.74 98.6587 113.897 99.7435V71.9236C120.74 73.0099 125.78 78.9053 125.79 85.8343ZM113.897 48.1883C113.897 44.9039 116.558 42.2416 119.842 42.2402C123.128 42.2402 125.79 44.9024 125.79 48.1868C125.789 51.4712 123.126 54.1335 119.842 54.1335C116.56 54.1278 113.903 51.4698 113.897 48.1883Z" fill="#63316D"/>
<path d="M45.0254 75.9199H44.93C40.9068 75.9256 37.6466 79.1857 37.6409 83.209V87.5498C37.6409 88.7585 38.6204 89.7365 39.8276 89.7365H50.1278C51.3351 89.7365 52.3146 88.7585 52.3146 87.5498V83.209C52.3103 79.1857 49.0487 75.9256 45.0254 75.9199ZM47.9411 85.363H42.0144V83.209C42.0172 81.6003 43.3213 80.2962 44.93 80.2934H45.0254C46.6356 80.2962 47.9397 81.6003 47.9411 83.209V85.363Z" fill="#63316D"/>
<path d="M91.7304 75.9199H91.6322C87.6089 75.9256 84.3473 79.1857 84.343 83.209V87.5498C84.343 88.7585 85.3225 89.7365 86.5298 89.7365H96.8328C98.0415 89.7365 99.0196 88.7585 99.0196 87.5498V83.209C99.0153 79.1857 95.7551 75.9256 91.7304 75.9199ZM94.6461 85.363H88.7165V83.209C88.7179 81.6003 90.0234 80.2962 91.6322 80.2934H91.7304C93.3406 80.2962 94.6447 81.6003 94.6461 83.209V85.363Z" fill="#63316D"/>
<path d="M78.6328 93.589H58.0295C56.8223 93.589 55.8428 94.5684 55.8428 95.7757V95.8711C55.8499 102.712 61.3936 108.254 68.2344 108.263H68.428C75.2687 108.254 80.811 102.712 80.8196 95.8711V95.7757C80.8196 94.5684 79.8401 93.589 78.6328 93.589ZM68.428 103.889H68.2344C64.6126 103.885 61.4421 101.458 60.4925 97.9625H76.1684C75.2189 101.458 72.0484 103.885 68.428 103.889Z" fill="#63316D"/>
</g>
<defs>
<clipPath id="clip0">
<rect width="153" height="153" fill="white"/>
</clipPath>
</defs>
</svg>
