<svg width="73" height="31" viewBox="0 0 73 31" fill="none" xmlns="http://www.w3.org/2000/svg">
<path d="M0 3.95392C0 2.29706 1.34315 0.953918 3 0.953918H70C71.6569 0.953918 73 2.29706 73 3.95392V28C73 29.6569 71.6569 31 70 31H3C1.34315 31 0 29.6569 0 28V3.95392Z" fill="white"/>
<path d="M7.575 26V5.75H10.4V15.3L15.05 5.75H17.675L13.675 14.675L18.325 26H15.575L11.7 16.5L10.4 18.85V26H7.575ZM21.8029 26.2C21.2363 26.2 20.7946 26.05 20.4779 25.75C20.1613 25.45 19.9363 25.075 19.8029 24.625C19.6863 24.175 19.6279 23.7167 19.6279 23.25V11.55H22.3029V22.45C22.3029 22.9667 22.3779 23.375 22.5279 23.675C22.6779 23.9583 22.9863 24.1 23.4529 24.1C23.7529 24.1 24.0613 24.0167 24.3779 23.85C24.7113 23.6667 25.0279 23.45 25.3279 23.2V11.55H28.0029V26H25.3279V24.575C24.8613 25.025 24.3279 25.4083 23.7279 25.725C23.1446 26.0417 22.5029 26.2 21.8029 26.2Z" fill="#309EF2"/>
<path d="M35.9137 26.2C35.397 26.2 34.9303 26.075 34.5137 25.825C34.1137 25.5583 33.7637 25.2667 33.4637 24.95V26H30.7887V5.75H33.4637V12.7C33.7803 12.3333 34.1553 12.0167 34.5887 11.75C35.0387 11.4833 35.572 11.35 36.1887 11.35C36.9387 11.35 37.5303 11.55 37.9637 11.95C38.4137 12.3333 38.747 12.825 38.9637 13.425C39.1803 14.0083 39.322 14.6083 39.3887 15.225C39.4553 15.825 39.4887 16.3417 39.4887 16.775V20.275C39.4887 21.2917 39.3887 22.2583 39.1887 23.175C38.9887 24.075 38.6303 24.8083 38.1137 25.375C37.597 25.925 36.8637 26.2 35.9137 26.2ZM35.3637 24.1C35.8303 24.1 36.1637 23.9333 36.3637 23.6C36.5637 23.25 36.6887 22.7833 36.7387 22.2C36.7887 21.6167 36.8137 20.975 36.8137 20.275V16.775C36.8137 16.175 36.7803 15.625 36.7137 15.125C36.647 14.6083 36.5053 14.2 36.2887 13.9C36.072 13.6 35.7303 13.45 35.2637 13.45C34.9137 13.45 34.5803 13.525 34.2637 13.675C33.9637 13.825 33.697 13.9917 33.4637 14.175V23.45C33.697 23.6333 33.972 23.7917 34.2887 23.925C34.622 24.0417 34.9803 24.1 35.3637 24.1ZM41.9203 26V11.55H44.3953V12.925C44.8786 12.375 45.412 11.9667 45.9953 11.7C46.5786 11.4333 47.1786 11.3 47.7953 11.3C48.3286 11.3 48.8036 11.4333 49.2203 11.7C49.6536 11.9667 49.962 12.4417 50.1453 13.125C50.662 12.4917 51.2203 12.0333 51.8203 11.75C52.437 11.45 53.0786 11.3 53.7453 11.3C54.212 11.3 54.637 11.4167 55.0203 11.65C55.4036 11.8667 55.712 12.225 55.9453 12.725C56.1786 13.2083 56.2953 13.85 56.2953 14.65V26H53.8453V14.825C53.8453 14.125 53.7286 13.6583 53.4953 13.425C53.2786 13.175 52.9786 13.05 52.5953 13.05C52.2286 13.05 51.8453 13.1583 51.4453 13.375C51.0453 13.575 50.6786 13.8583 50.3453 14.225C50.3453 14.2917 50.3453 14.3583 50.3453 14.425C50.3453 14.4917 50.3453 14.5667 50.3453 14.65V26H47.8953V14.825C47.8953 14.125 47.7786 13.6583 47.5453 13.425C47.3286 13.175 47.0286 13.05 46.6453 13.05C46.2786 13.05 45.8953 13.1583 45.4953 13.375C45.112 13.575 44.7453 13.8583 44.3953 14.225V26H41.9203Z" fill="#FF5C5C"/>
<path d="M61.5125 26.2C60.9458 26.2 60.4458 26.0417 60.0125 25.725C59.5792 25.3917 59.2375 24.975 58.9875 24.475C58.7375 23.9583 58.6125 23.4167 58.6125 22.85C58.6125 21.95 58.7625 21.1917 59.0625 20.575C59.3625 19.9583 59.7708 19.4417 60.2875 19.025C60.8208 18.5917 61.4292 18.2167 62.1125 17.9C62.8125 17.5833 63.5458 17.275 64.3125 16.975V15.95C64.3125 15.3667 64.2792 14.8833 64.2125 14.5C64.1458 14.1167 64.0042 13.8333 63.7875 13.65C63.5875 13.45 63.2792 13.35 62.8625 13.35C62.4958 13.35 62.1958 13.4333 61.9625 13.6C61.7458 13.7667 61.5875 14.0083 61.4875 14.325C61.3875 14.625 61.3375 14.9833 61.3375 15.4V16.125L58.6875 16.025C58.7208 14.425 59.0875 13.25 59.7875 12.5C60.4875 11.7333 61.5708 11.35 63.0375 11.35C64.4708 11.35 65.4875 11.7417 66.0875 12.525C66.6875 13.3083 66.9875 14.4417 66.9875 15.925V22.525C66.9875 22.975 66.9958 23.4083 67.0125 23.825C67.0458 24.2417 67.0792 24.6333 67.1125 25C67.1625 25.35 67.2042 25.6833 67.2375 26H64.7875C64.7375 25.7333 64.6708 25.4 64.5875 25C64.5208 24.5833 64.4708 24.2083 64.4375 23.875C64.2708 24.4417 63.9458 24.975 63.4625 25.475C62.9958 25.9583 62.3458 26.2 61.5125 26.2ZM62.5625 23.9C62.8292 23.9 63.0792 23.825 63.3125 23.675C63.5458 23.525 63.7542 23.3583 63.9375 23.175C64.1208 22.975 64.2458 22.8167 64.3125 22.7V18.6C63.8958 18.8333 63.5042 19.0667 63.1375 19.3C62.7708 19.5333 62.4458 19.7833 62.1625 20.05C61.8958 20.3 61.6792 20.5917 61.5125 20.925C61.3625 21.2417 61.2875 21.6083 61.2875 22.025C61.2875 22.6083 61.3958 23.0667 61.6125 23.4C61.8292 23.7333 62.1458 23.9 62.5625 23.9Z" fill="#FF63B1"/>
</svg>
