<?xml version="1.0" encoding="utf-8"?>
<!DOCTYPE svg PUBLIC "-//W3C//DTD SVG 1.1//EN" "http://www.w3.org/Graphics/SVG/1.1/DTD/svg11.dtd">
<svg version="1.1" id="Layer_1" xmlns="http://www.w3.org/2000/svg" xmlns:xlink="http://www.w3.org/1999/xlink" x="0px" y="0px" width="500px" height="500.003px" viewBox="0 0 500 500.003" enable-background="new 0 0 500 500.003" xml:space="preserve">
<rect fill="#FFE850" width="500" height="500.003"/>
<path fill="#CE171E" d="M72.884,468.165c-25.574,0-42.914-13.098-42.914-37.422v-0.936h14.038v0.621c0,15.904,11.536,25.268,28.998,25.268c9.356,0,27.132-4.057,27.132-19.031c0-28.997-66.737-8.416-66.737-49.893c0-20.896,19.463-30.252,38.797-30.252c22.765,0,38.232,13.094,38.232,34.305v0.936H96.399v-0.936c0-13.723-9.67-21.833-25.267-21.833c-10.915,0-23.701,4.678-23.701,17.158c0,27.132,66.737,8.102,66.737,49.894C114.168,458.183,93.461,468.165,72.884,468.165 M210.424,465.048c-1.244-3.119-2.13-13.723-2.13-18.708v-57.388c0-22.765-13.974-32.432-38.304-32.432c-22.45,0-42.099,9.981-42.099,34.619v0.936h14.038v-0.936c0-15.911,11.851-22.14,26.511-22.14c17.461,0,25.566,6.229,25.566,20.267c0,10.91-5.296,12.161-15.281,13.408l-5.296,0.629c-24.638,2.803-49.904,5.611-49.904,33.673c0,19.337,13.102,31.188,34.937,31.188c19.02,0,31.178-8.416,36.481-19.96c0,0,0,11.229,1.558,16.843H210.424z M194.006,424.193c0,8.108-2.802,15.596-8.105,21.21c-6.547,6.544-15.91,10.289-26.51,10.289c-10.286,0-21.829-5.614-21.829-19.023c0-16.218,17.462-19.956,36.174-22.146l9.979-1.244c2.815-0.307,8.112-1.25,10.292-3.116V424.193z M300.97,359.636h-1.244h-13.767l-28.647,89.323l-28.954-89.323h-16.261l37.424,105.409h15.282L300.97,359.636z M324.835,331.893c0-5.572-4.582-9.828-9.82-9.828c-5.24,0-9.821,4.256-9.821,9.5c0,5.568,4.581,9.82,9.821,9.82c5.238,0,9.82-4.252,9.82-9.82V331.893z M322.497,465.045V359.636h-0.936h-13.724v105.409H322.497z M351.495,465.045V319.717h-0.93h-13.723v145.328H351.495z M380.2,465.045V319.717h-0.937H365.54v145.328H380.2z M431.52,468.165c20.592,0,41.291-9.982,41.291-32.121c0-41.792-67.044-22.762-67.044-49.894c0-12.48,12.779-17.158,24.002-17.158c15.596,0,25.266,8.109,25.266,21.833v0.936h14.031v-0.936c0-21.21-15.468-34.305-38.54-34.305c-19.341,0-38.797,9.356-38.797,30.252c0,41.477,67.044,20.896,67.044,49.893c0,14.975-18.083,19.031-27.432,19.031c-17.162,0-29.012-9.363-29.012-25.268v-0.621h-14.038v0.936C388.291,455.067,405.638,468.165,431.52,468.165"/>
</svg>
